<?xml version="1.0" encoding="UTF-8"?>
<!DOCTYPE svg PUBLIC "-//W3C//DTD SVG 1.1//EN" "http://www.w3.org/Graphics/SVG/1.1/DTD/svg11.dtd">
<!-- Creator: CorelDRAW -->
<svg xmlns="http://www.w3.org/2000/svg" xml:space="preserve" width="180.596mm" height="180.622mm" version="1.1" style="shape-rendering:geometricPrecision; text-rendering:geometricPrecision; image-rendering:optimizeQuality; fill-rule:evenodd; clip-rule:evenodd"
viewBox="0 0 4044.28 4044.87"
 xmlns:xlink="http://www.w3.org/1999/xlink"
 xmlns:xodm="http://www.corel.com/coreldraw/odm/2003">
 <defs>
  <style type="text/css">
   <![CDATA[
    .fil0 {fill:url(#id0)}
   ]]>
  </style>
  <linearGradient id="id0" gradientUnits="userSpaceOnUse" x1="-0" y1="3938.92" x2="4044.28" y2="88.77">
   <stop offset="0" style="stop-opacity:1; stop-color:#35A0BD"/>
   <stop offset="0.278431" style="stop-opacity:1; stop-color:#708EF3"/>
   <stop offset="0.619608" style="stop-opacity:1; stop-color:#BF70D4"/>
   <stop offset="1" style="stop-opacity:1; stop-color:#F3518C"/>
  </linearGradient>
 </defs>
 <g id="Layer_x0020_1">
  <metadata id="CorelCorpID_0Corel-Layer"/>
  <path class="fil0" d="M1078.61 2966.22l539.34 0c37.22,0 67.4,-30.18 67.4,-67.4 0,-37.25 -30.18,-67.43 -67.4,-67.43l-539.34 0c-37.22,0 -67.4,30.18 -67.4,67.43 0,37.22 30.18,67.4 67.4,67.4zm2369.64 535.14c13.45,0 26.6,-4.04 37.74,-11.57l240.21 -162.69c21.32,-12.87 33.79,-36.51 32.43,-61.38 -1.36,-24.9 -16.36,-47 -38.98,-57.49 -22.62,-10.46 -49.16,-7.59 -69.03,7.44l-240.21 162.69c-24.6,16.57 -35.43,47.28 -26.76,75.64 8.7,28.36 34.93,47.71 64.59,47.65l0 -0.28zm-279.1 188.89c13.45,0.03 26.6,-4.01 37.74,-11.57l55.83 -37.77c20.37,-13.3 31.97,-36.57 30.37,-60.86 -1.61,-24.32 -16.17,-45.83 -38.14,-56.35 -21.94,-10.52 -47.86,-8.39 -67.8,5.59l-55.83 37.74c-24.53,16.6 -35.34,47.28 -26.63,75.61 8.67,28.3 34.84,47.65 64.47,47.62l0 0zm-2157.94 84.96l202.22 0c37.25,0 67.43,-30.18 67.43,-67.43 0,-37.22 -30.18,-67.4 -67.43,-67.4l-202.22 0c-37.25,0 -67.43,30.18 -67.43,67.4 0,37.25 30.18,67.43 67.43,67.43zm-337.08 0l67.43 0c37.22,0 67.4,-30.18 67.4,-67.43 0,-37.22 -30.18,-67.4 -67.4,-67.4l-67.43 0c-37.22,0 -67.4,30.18 -67.4,67.4 0,37.25 30.18,67.43 67.4,67.43zm-551.59 -538.23c21.45,30.58 46.54,66.32 75.64,113.66 11.82,19.01 24.41,38.27 37.16,57.77 55.18,67.4 90.42,148.9 101.71,235.28l0 198.92c0,111.71 90.57,202.26 202.26,202.26l808.96 0c111.71,0 202.26,-90.54 202.26,-202.26l0 -269.65c0.56,-24.87 14.35,-47.59 36.2,-59.53 131.06,-67.4 246.23,-162.01 337.76,-277.52l30.52 0c24.26,0 48.39,-3.24 71.75,-9.72l209.51 316.84c102.82,141.99 277.46,213.06 450.18,183.25 33.08,-5.62 66.56,7.31 87.24,33.7l128.44 189.7c67.21,98.69 201.67,124.3 300.45,57.25l746.63 -517.46c47.43,-31.91 80.17,-81.44 90.94,-137.61 11.02,-54.9 -0.19,-111.96 -31.14,-158.62 -30.09,-68.73 -39.44,-144.73 -26.97,-218.71 1.02,-17.53 1.94,-34.9 2.56,-51.97 1.94,-58.26 -1.48,-115.63 -4.78,-171.24 -1.23,-20.89 -2.44,-41.85 -3.46,-62.68 -11.67,-276.54 -99.68,-544.46 -254.22,-774.06l-394.98 -583.13c-79.65,-123.04 -241.63,-162.29 -368.75,-89.34 -50.3,30.4 -89.16,76.53 -110.57,131.25 -66.75,-50.58 -153.31,-67.09 -234.01,-44.59 -80.7,22.5 -146.24,81.38 -177.2,159.21 -60.67,-45.36 -137.54,-63.17 -211.98,-49.07l0 -1169.25c0,-148.93 -120.72,-269.65 -269.65,-269.65l-1213.44 0c-148.93,0 -269.65,120.72 -269.65,269.65l0 886.64c-19.66,-5.68 -39.87,-9.1 -60.27,-10.25l-11.95 0c-101.71,0.46 -187.01,76.93 -198.55,177.97 -10.99,93.04 -29.01,185.13 -53.91,275.46 -15,49.16 -33.33,97.24 -54.87,143.87 -44.62,87.74 -71.26,183.49 -78.35,281.66 -1.88,57.99 0.46,119.58 2.72,178.99 2.07,55.27 4.29,112.39 2.96,165.04 -0.96,35.52 -3.98,90.33 -7.28,152.14 -7.35,134.83 -16.45,302.55 -10.46,382.66 1.33,121.49 43.85,238.95 120.6,333.16zm2265.55 -1609.19l75.58 111.5c4.69,6.6 10.52,12.31 17.25,16.85 1.27,0.86 2.5,1.82 3.83,2.62 6.48,4.01 13.61,6.88 21.05,8.52l3.18 0c3.49,0.71 7.07,1.14 10.65,1.27 2.93,-0.21 5.86,-0.65 8.77,-1.27 2.22,0 4.32,-0.49 6.73,-0.96 8.02,-1.7 15.62,-4.88 22.47,-9.38 30.8,-20.86 38.88,-62.74 18.05,-93.57 -41.79,-61.66 -25.64,-145.5 36.01,-187.26 61.66,-41.79 145.5,-25.67 187.26,35.98l75.3 112.58c21.14,30.15 62.52,37.8 93.01,17.16 30.49,-20.65 38.79,-61.9 18.64,-92.73 -20.77,-30.64 -28.02,-68.51 -20.03,-104.65 7.99,-36.17 30.49,-67.46 62.21,-86.53 65.83,-34.9 147.45,-13.39 187.51,49.41l394.98 583.28c140.51,209.02 220.43,452.81 230.95,704.41 1.02,21.57 2.28,43.08 3.58,64.65 3.24,54.87 6.33,106.71 4.57,158.62 -0.52,16.2 -1.48,32.65 -2.41,49.16 -15.31,102.02 1.48,206.3 48.05,298.38 12.19,17.9 16.69,39.93 12.5,61.19 -4.2,21.23 -16.73,39.9 -34.81,51.84l-746.53 517.21c-37.12,25.03 -87.46,15.34 -112.67,-21.66l-129.61 -191.45c-49.19,-67.86 -132.17,-102.52 -215,-89.77 -121.99,23.82 -246.85,-24.63 -320.82,-124.52l-237.03 -358.72 0 -0.74c0,-0.4 -0.68,-0.62 -0.86,-1.02l-179.82 -272.09c-49.41,-73.01 -54.87,-197.84 15.71,-245.71l74.9 -57.37 452.9 664.97c13.27,20.65 36.66,32.43 61.13,30.83 24.47,-1.6 46.17,-16.36 56.6,-38.54 10.43,-22.22 8.02,-48.33 -6.36,-68.2l-486.04 -713.23c-1.79,-5.46 -4.32,-10.68 -7.5,-15.46 -2.28,-2.41 -4.75,-4.66 -7.35,-6.73l-780.54 -1145.43c-26.94,-39.93 -30.52,-91.22 -9.41,-134.52 21.14,-43.3 63.72,-72.03 111.78,-75.39 48.05,-3.36 94.25,19.16 121.19,59.1l563.66 820.44c13.55,20.12 36.85,31.41 61.01,29.59 24.19,-1.85 45.52,-16.51 55.89,-38.42 10.37,-21.94 8.15,-47.74 -5.8,-67.55l-36.66 -53.42c-0.4,-0.59 -0.4,-1.42 -0.86,-2.01 -41.79,-61.66 -25.67,-145.5 35.98,-187.29 61.66,-41.75 145.5,-25.64 187.29,36.01l0 0zm-702.74 -546.34l-46.1 -67c-53.57,-80.88 -146.49,-126.71 -243.27,-120.07 -96.78,6.64 -182.54,64.74 -224.57,152.2 -42.03,87.43 -33.85,190.68 21.42,270.42l55.76 81.84c-164.82,-51.57 -263.79,-219.6 -228.98,-388.77 34.81,-169.14 192.07,-284.47 363.87,-266.75 171.8,17.68 302.27,162.6 301.87,335.32l0 2.81zm0 -946.63l0 67.43c0,37.22 -30.18,67.4 -67.4,67.4l-539.34 0c-37.22,0 -67.4,-30.18 -67.4,-67.4l0 -67.43 674.13 -0zm-1078.62 134.83c0,-74.46 60.36,-134.83 134.83,-134.83l134.83 -0 0 67.43c0,111.68 90.54,202.23 202.23,202.23l539.34 0c111.68,0 202.23,-90.54 202.23,-202.23l0 -67.43 134.83 0c74.46,0 134.83,60.36 134.83,134.83l0 1239.89c-23.48,22.65 -42.59,49.47 -56.35,79.09l-241.14 -351.03c18.42,-50.98 27.87,-104.77 27.84,-158.96 0,-260.64 -211.27,-471.91 -471.91,-471.91 -260.61,0 -471.88,211.27 -471.88,471.91 0,260.61 211.27,471.88 471.88,471.88l3.33 0 593.22 870.87 -77.46 59.47c-137.39,93.01 -135.81,301.59 -48.94,430.03l125.6 190.19 -1202.45 0c-74.46,0 -134.83,-60.39 -134.83,-134.86l0 -799.92c79.4,-172.54 125.01,-358.65 134.43,-548.35l0.4 0c0,-205.68 -63.57,-321.65 -134.83,-387.11l-0 -961.2zm-459.72 2258.85c3.36,-63.36 6.42,-119.58 7.44,-156.06 1.39,-56.91 -0.83,-116.16 -2.99,-173.53 -2.28,-59.81 -4.44,-116.22 -2.62,-169.48 6.7,-81.07 29.41,-159.98 66.87,-232.16 24.1,-52.21 44.53,-106 61.23,-161 26.79,-97.15 46.14,-196.21 57.89,-296.29 3.46,-33.33 31.35,-58.76 64.87,-59.13l10.99 -0c28.33,2.1 55.61,11.57 79.16,27.44 5.34,5.77 11.67,10.55 18.67,14.1 49.19,41.85 98.23,125.66 98.23,295.55 -0.43,3.24 -0.15,6.51 0.8,9.63 11.6,198.62 -132.02,519.9 -165.78,536.75 -28.11,13.76 -42.96,45.15 -35.74,75.61 7.22,30.43 34.59,51.81 65.89,51.48l0 674.81c0,148.93 120.72,269.69 269.65,269.69l1002.05 -0c-67.89,62.06 -142.88,115.88 -223.43,160.29 -64.03,35.89 -103.91,103.38 -104.49,176.77l0 269.65c0,37.25 -30.18,67.43 -67.43,67.43l-808.96 0c-37.22,0 -67.4,-30.18 -67.4,-67.43l0 -198.92c-9.75,-113.13 -52.83,-220.8 -123.84,-309.37 -12.07,-18.33 -23.95,-36.42 -35,-54.41 -30.89,-50.09 -57.43,-87.64 -80.02,-120.32 -62.65,-74.37 -96.9,-168.53 -96.68,-265.77 -5.25,-71.53 3.58,-234.47 10.65,-365.32l0 -0z"/>
 </g>
</svg>
